# xmcd
#
# Track frame offsets:
#	150
#	10544
#	25045
#	34320
#	46534
#	56380
#	68447
#	80868
#	94095
#	103964
#	113653
#	124476
#	137094
#	147073
#	156211
#	168051
#	179586
#	190038
#	201830
#	212696
#	224035
#	234869
#	245731
#	256657
#	266323
#
# Disc length: 3700 seconds
#
# Revision: 0
# Processed by: cddbd v1.5.2PL0 Copyright (c) Steve Scherf et al.
# Submitted via: FairStars CD Ripper 1.80
#
DISCID=560e7219
DTITLE=Various Artist - Ding Dong: The Gee Records Story 1956-1962 cd2
DYEAR=2015
DGENRE=Oldies
TTITLE0=The Regents - Barbara-Ann
TTITLE1=The Cleftones - Little Girl Of Mine
TTITLE2='Little' Frankie Brunson - You'll Never Get Away
TTITLE3=Frankie Lymon and The Teenagers - I'm Not A Juvenile Delinquent
TTITLE4=The Valentines - I'll Never Let You Go
TTITLE5=The Debonaires - We'll Wait
TTITLE6=John Loren - Tell It Like It Is
TTITLE7=The Quintones - I'm Willing
TTITLE8=The Harptones - Cry Like I Cried
TTITLE9=Anne Kaye - Every Fortune Teller Tells Me
TTITLE10=Jimmy Mack and The Watts - True Lover Girl
TTITLE11=Trade Martin - La Mer
TTITLE12=Don Lanier - Need Your Loving
TTITLE13=The Suburbans - Love Me
TTITLE14=Big Daddy - Walking Her Home
TTITLE15=The Drapers - You Got To Look Up
TTITLE16=The Upsetters - Blues 
TTITLE17=The Rosebuds - Dearest Darling
TTITLE18=Ollie Shepard - Say Yeah
TTITLE19=The Coins - Look At Me Girl
TTITLE20=Shaye Cogan - Ain't Noboby Home
TTITLE21=The Heartbeats - 500 Miles To Go
TTITLE22=The Duvals - Guide Me
TTITLE23=The MelloTones - Rattle Snake Roll
TTITLE24=The Teenagers - Flip Flop
EXTD=
EXTT0=
EXTT1=
EXTT2=
EXTT3=
EXTT4=
EXTT5=
EXTT6=
EXTT7=
EXTT8=
EXTT9=
EXTT10=
EXTT11=
EXTT12=
EXTT13=
EXTT14=
EXTT15=
EXTT16=
EXTT17=
EXTT18=
EXTT19=
EXTT20=
EXTT21=
EXTT22=
EXTT23=
EXTT24=
PLAYORDER=
